<svg width="53" height="44" viewBox="0 0 53 44" fill="none" xmlns="http://www.w3.org/2000/svg">
<path fill-rule="evenodd" clip-rule="evenodd" d="M16.7308 0.0255231C12.9668 0.344671 10.9751 0.837789 8.48936 2.06602C3.81558 4.37557 1.00878 8.72675 0.129244 15.0263C0.0456007 15.6255 -0.00395048 16.9252 0.000247037 18.4073C0.00976823 21.7996 0.258855 23.405 1.68478 29.2676C2.66608 33.3022 2.86909 34.453 3.06761 37.1054C3.23889 39.3952 3.33277 40.0042 3.65188 40.8963C4.53561 43.367 6.37125 44.492 8.38698 43.798C8.87973 43.6284 10.6227 42.6228 13.9666 40.5787C16.6412 38.9438 21.1513 36.2062 23.9891 34.4952C26.8269 32.7841 29.4298 31.1597 29.7735 30.8852C31.2958 29.6694 32.455 27.7855 32.8172 25.9383C33.1716 24.1318 33.3439 18.1154 33.1096 15.7288C32.2083 6.54455 28.3506 1.34566 21.5969 0.213836C20.7009 0.0636362 17.6663 -0.0537774 16.7308 0.0255231ZM34.472 4.26226C34.174 4.39278 33.6233 5.1611 33.6233 5.44643C33.6233 5.5702 33.8322 6.22028 34.0875 6.89106C34.8809 8.97479 35.3802 11.1365 35.7418 14.053C35.9663 15.8643 35.9949 21.9704 35.7849 23.274C35.5164 24.9403 35.5152 24.9017 35.8444 25.2703C36.7839 26.3226 39.2244 25.33 42.7349 22.4676C44.0581 21.3888 47.5819 17.7989 48.7318 16.3582C51.1995 13.2669 52.5098 10.7025 52.3222 9.33226C51.9804 6.83727 48.4684 5.29183 41.2504 4.46061C39.2885 4.23459 34.8328 4.10427 34.472 4.26226Z" fill="#60CFC3"/>
</svg>
