<svg width="52" height="44" viewBox="0 0 52 44" fill="none" xmlns="http://www.w3.org/2000/svg">
<path fill-rule="evenodd" clip-rule="evenodd" d="M13.4506 0.0703302C6.77798 0.906032 1.43467 5.94576 0.192464 12.5752C-0.0811498 14.035 -0.0597721 16.7879 0.235819 18.1636C0.523418 19.5018 0.872853 20.5462 1.42637 21.7212L1.8845 22.6937L9.48176 22.6682L17.079 22.6427L18.8316 19.3514C19.7955 17.5412 20.6442 15.9558 20.7176 15.8284C20.7909 15.7009 21.0541 15.507 21.3022 15.3975C22.0849 15.052 22.8932 15.3688 23.2334 16.1544C23.3306 16.3788 24.0969 18.962 24.9362 21.8951C25.7755 24.8281 26.4947 27.2656 26.5343 27.3118C26.5739 27.3579 27.2681 26.4235 28.0769 25.2351C29.0174 23.8535 29.6606 23.0057 29.8609 22.8839C30.1635 22.6997 30.4958 22.6932 39.6741 22.6929L49.1741 22.6925L49.6282 21.7206C50.1899 20.5186 50.5401 19.476 50.8217 18.1675C51.1378 16.6981 51.1343 13.8215 50.8146 12.326C50.2212 9.55043 49.0055 7.10093 47.2641 5.17246C44.9004 2.55491 42.183 0.991158 38.7152 0.252941C37.2164 -0.0661293 34.3336 -0.0696183 32.8609 0.245863C30.3412 0.785621 28.1526 1.80812 26.1533 3.37975L25.529 3.87046L24.9046 3.37975C22.8711 1.78121 20.6952 0.766582 18.2115 0.258622C17.0348 0.0178994 14.6289 -0.0772933 13.4506 0.0703302ZM20.834 21.9645C19.2908 24.8853 19.1094 25.1844 18.7437 25.4113L18.3865 25.633L11.2663 25.6828L4.14613 25.7327L4.87297 26.4463C5.27276 26.8387 9.54359 30.7894 14.3638 35.2255C20.8415 41.1873 23.2691 43.3628 23.6702 43.5652C24.806 44.1388 26.2181 44.1452 27.3711 43.5824C27.7633 43.3909 30.1317 41.2686 36.6776 35.2431C41.5069 30.7976 45.7949 26.828 46.2066 26.4217L46.955 25.6828L39.1639 25.6872L31.3729 25.6916L29.2251 28.8447C28.0439 30.5789 26.9505 32.0909 26.7954 32.2045C26.5945 32.3516 26.3621 32.4111 25.9884 32.4111C25.3209 32.4111 24.8197 32.063 24.5918 31.441C24.506 31.207 23.7785 28.728 22.9752 25.932C22.1719 23.1361 21.5013 20.8348 21.4851 20.8182C21.4689 20.8014 21.1759 21.3172 20.834 21.9645Z" fill="#F9B688"/>
</svg>
