<svg width="29" height="45" viewBox="0 0 29 45" fill="none" xmlns="http://www.w3.org/2000/svg">
<path fill-rule="evenodd" clip-rule="evenodd" d="M2.97905 0.149275C1.49996 0.546977 0.336732 1.82935 0.0933765 3.33028C0.0337169 3.69802 0.00104848 6.69131 0.000699078 11.825L0 19.752H14.5H29L28.9993 11.825C28.999 6.69131 28.9663 3.69802 28.9066 3.33028C28.6589 1.80245 27.5004 0.539989 25.9834 0.144908C25.2312 -0.0510171 3.70859 -0.046999 2.97905 0.149275ZM15.311 6.76066C16.8375 8.98257 17.8806 10.8859 18.2598 12.1414C19.0687 14.82 16.6426 17.5424 13.8856 17.0496C11.5415 16.6307 10.0754 14.3429 10.7402 12.1414C10.9945 11.2996 11.5391 10.1748 12.3209 8.87696C13.0886 7.60254 14.3963 5.68871 14.4995 5.68871C14.5408 5.68871 14.9059 6.17106 15.311 6.76066ZM13.8443 11.5638C13.1555 12.9301 13.0679 13.3514 13.3786 13.8042C13.7077 14.284 14.0053 14.4573 14.5 14.4573C14.9947 14.4573 15.2923 14.284 15.6214 13.8042C15.9321 13.3514 15.8445 12.9301 15.1557 11.5638C14.8346 10.9268 14.5396 10.4056 14.5 10.4056C14.4604 10.4056 14.1654 10.9268 13.8443 11.5638ZM0.000261904 23.7482C0.000523952 25.4922 0.120542 26.4909 0.448889 27.4824C1.12183 29.5145 2.47426 31.0641 4.41114 32.0224C5.23319 32.4291 6.20023 32.767 6.54195 32.767C6.61104 32.767 6.63855 31.6607 6.63855 28.88V24.9929H14.5H22.3614V28.88C22.3614 31.9642 22.3843 32.767 22.4724 32.767C22.757 32.767 23.9414 32.377 24.4846 32.1045C26.0361 31.3258 27.1746 30.2549 27.9781 28.818C28.7198 27.4916 28.9993 26.1044 28.9997 23.7482L29 22.3724H14.5H0L0.000261904 23.7482ZM9.25904 29.5788V31.5441H14.5H19.741V29.5788V27.6134H14.5H9.25904V29.5788ZM11.7048 35.5622V36.8724H14.4127H17.1205V35.5622V34.252H14.4127H11.7048V35.5622ZM11.7048 42.1134V44.7339H14.4127H17.1205V42.1134V39.4929H14.4127H11.7048V42.1134Z" fill="#AE386E"/>
</svg>
