<svg width="28" height="28" viewBox="0 0 28 28" fill="none" xmlns="http://www.w3.org/2000/svg">
<path fill-rule="evenodd" clip-rule="evenodd" d="M4.13848 7.06801C3.29257 7.31815 2.58191 8.12422 2.40237 9.03716C2.31037 9.50492 2.31037 18.4832 2.40237 18.951C2.58407 19.8751 3.29673 20.6755 4.15753 20.9223C4.52323 21.0272 15.102 21.0253 15.4761 20.9203C16.2687 20.6978 16.9303 20.0214 17.1917 19.1661L17.2967 18.8224V13.9941C17.2967 9.44894 17.2921 9.14935 17.2175 8.88587C16.9633 7.98748 16.2989 7.29202 15.4801 7.06736C15.2557 7.00578 14.5132 6.9971 9.78704 7.00069C5.36069 7.0041 4.31239 7.0166 4.13848 7.06801ZM22.5722 8.4579C22.4974 8.48804 21.5573 9.05848 20.4832 9.72557L18.5303 10.9385L18.5412 13.9869L18.5522 17.0354L20.4571 18.211C21.5048 18.8577 22.4407 19.4205 22.5368 19.4617C22.8307 19.5878 23.0825 19.6077 23.3725 19.5277C23.8236 19.4031 24.1972 19.0695 24.3909 18.6181C24.483 18.4035 24.4834 18.3825 24.4953 14.1164C24.5084 9.39949 24.513 9.49176 24.2457 9.07308C23.9558 8.61908 23.5457 8.39362 23.0206 8.39959C22.8489 8.40155 22.6471 8.42777 22.5722 8.4579Z" fill="black"/>
</svg>
