<svg width="70" height="44" viewBox="0 0 70 44" fill="none" xmlns="http://www.w3.org/2000/svg">
<path fill-rule="evenodd" clip-rule="evenodd" d="M3.56917 0.214034C2.31323 0.637577 1.47344 1.3082 0.74221 2.47177C-0.0472968 3.72785 -0.0243948 3.16175 0.0155819 20.4026L0.0521708 36.2068L0.479176 37.0946C1.16529 38.521 2.3879 39.5356 3.87096 39.9095C4.48552 40.0643 4.6396 40.1806 5.19562 40.9091C5.83009 41.7406 7.05772 42.7513 8.02109 43.2355C9.44833 43.9526 11.8856 44.211 13.4735 43.8133C15.303 43.3552 17.462 41.9136 18.2864 40.5996L18.572 40.1445H34.6761H50.7802L51.0657 40.5996C51.8902 41.9136 54.0492 43.3552 55.8786 43.8133C57.4666 44.211 59.9038 43.9526 61.3311 43.2355C62.2944 42.7513 63.5221 41.7406 64.1565 40.9091C64.7126 40.1806 64.8666 40.0643 65.4812 39.9095C66.9404 39.5416 68.1977 38.4983 68.8724 37.0956L69.3 36.2068V28.398C69.3 20.6168 69.2989 20.5865 68.9962 19.8501C68.5827 18.8443 61.3507 9.75823 60.4487 9.11151C59.1249 8.16204 58.8123 8.10851 54.5846 8.10851H50.8023L50.7978 6.74031C50.7887 3.92154 50.4086 2.66946 49.201 1.47999C48.8524 1.13654 48.1705 0.670414 47.6859 0.444159L46.8046 0.0327631L25.5289 0.00806901C5.68604 -0.0148901 4.20704 -0.00100796 3.56917 0.214034ZM28.2667 8.53339C28.5686 8.73028 28.9604 9.12072 29.1372 9.40103C29.4375 9.87677 29.4618 10.063 29.5039 12.2131L29.5489 14.5157L31.5366 14.5165C33.7139 14.5173 34.3755 14.6357 35.0649 15.1484C35.9057 15.7738 36.0553 16.3598 36.0064 18.8386C35.964 20.9837 35.9582 21.0212 35.5756 21.5643C34.9055 22.5158 34.4125 22.6582 31.7875 22.6582H29.5265V24.8345C29.5265 26.9099 29.5103 27.043 29.1746 27.7063C28.9139 28.2218 28.6607 28.4953 28.1971 28.7629C27.6253 29.0932 27.4247 29.1286 25.8583 29.1767C23.892 29.2371 22.8988 29.0748 22.2497 28.5871C21.4249 27.9675 21.3352 27.6476 21.2602 25.0609L21.1924 22.7249L18.8209 22.6582C16.3512 22.5887 15.9453 22.4988 15.4152 21.9043C14.8318 21.2501 14.7555 20.8758 14.7555 18.6691C14.7555 16.3929 14.8334 16.0027 15.4078 15.4048C16.1234 14.6599 16.3921 14.5937 18.9225 14.5395L21.2602 14.4893V12.3087C21.2602 9.98475 21.3356 9.60099 21.9125 8.9927C22.655 8.20956 23.1267 8.0985 25.5392 8.13881C27.6463 8.17405 27.7358 8.187 28.2667 8.53339ZM60.7997 17.4884L64.2247 21.7906L64.1876 22.9252L64.1504 24.0598L57.4764 24.0944L50.8023 24.1291V18.6549V13.1809L54.0885 13.1836L57.3747 13.1862L60.7997 17.4884ZM12.9243 33.2987C14.7454 34.2037 15.1284 36.7431 13.6489 38.1025C12.8865 38.803 11.3959 39.0536 10.415 38.646C9.80676 38.3935 9.08122 37.682 8.8316 37.0932C8.54133 36.4091 8.58619 35.3012 8.93256 34.5964C9.6188 33.2001 11.497 32.5895 12.9243 33.2987ZM58.6154 33.1353C59.8632 33.5004 60.6973 34.608 60.6918 35.8932C60.6803 38.6582 57.2121 39.9202 55.4411 37.8039C54.0191 36.1045 54.9008 33.5896 57.1037 33.0612C57.7233 32.9127 57.8805 32.9204 58.6154 33.1353Z" fill="#FFCC57"/>
</svg>
