<svg width="44" height="44" viewBox="0 0 44 44" fill="none" xmlns="http://www.w3.org/2000/svg">
<path fill-rule="evenodd" clip-rule="evenodd" d="M30.7981 0.120959C28.8727 0.407419 27.2362 1.06279 25.5935 2.2051C25.0914 2.55424 23.4601 4.11868 19.7478 7.81068L14.5986 12.932L20.0496 18.3698L25.5008 23.8077L26.1185 23.3438C29.3954 20.8836 33.7595 20.1619 37.6336 21.4395C38.1147 21.5981 38.5686 21.7521 38.6424 21.7819C38.7385 21.8206 39.1384 21.4397 40.0555 20.4359C41.5982 18.7475 42.1026 18.0884 42.6736 17.0157C43.5627 15.345 43.9993 13.5612 43.9993 11.5994C43.9993 9.67422 43.5975 7.97747 42.7497 6.32284C40.5008 1.93403 35.6231 -0.597083 30.7981 0.120959ZM7.74762 19.7861C2.0251 25.5219 1.68077 25.9338 0.827408 28.0631C-0.641298 31.728 -0.130968 35.9347 2.16931 39.1241C4.70321 42.6372 9.07134 44.4966 13.3535 43.8848C15.3271 43.6028 17.1428 42.8609 18.6946 41.7023C18.9788 41.49 19.7964 40.7409 20.5112 40.0375L21.811 38.7585L21.4822 37.7952C20.6182 35.2643 20.5862 32.422 21.3927 29.8685C21.7676 28.682 22.502 27.2518 23.274 26.2053L23.666 25.674L18.206 20.2251L12.7461 14.7762L7.74762 19.7861ZM31.7888 23.6053C26.8139 24.6372 23.3895 28.7506 23.3895 33.6943C23.3895 35.8046 24.0487 37.8892 25.2633 39.6195C25.791 40.3715 27.0836 41.6366 27.8289 42.1306C29.0674 42.9517 30.8186 43.6572 31.9826 43.8042L32.4349 43.8612V33.7054V23.5496L32.198 23.5595C32.0677 23.565 31.8835 23.5856 31.7888 23.6053ZM35.0193 33.7041V43.8586L35.4285 43.8007C37.4119 43.5203 39.5891 42.3746 41.0966 40.818C41.9903 39.8952 42.4352 39.274 42.9825 38.1847C43.6844 36.7876 44 35.3945 44 33.6943C44 31.9941 43.6844 30.601 42.9825 29.204C42.4513 28.1467 42.0005 27.508 41.1846 26.6562C39.7453 25.1539 38.0879 24.1964 36.0961 23.7167C35.717 23.6255 35.3197 23.5505 35.2131 23.5502L35.0193 23.5496V33.7041Z" fill="#6F70DA"/>
</svg>
