<svg width="33" height="44" viewBox="0 0 33 44" fill="none" xmlns="http://www.w3.org/2000/svg">
<path fill-rule="evenodd" clip-rule="evenodd" d="M23.9561 0.92493C23.579 1.43359 22.5567 2.72317 21.6844 3.79056C18.6361 7.52053 17.6289 9.03806 17.0661 10.7494C16.0431 13.8604 17.8971 17.845 21.1181 19.4574C23.2539 20.5265 25.7987 20.5643 27.9492 19.5587C30.2338 18.4903 31.8606 16.4441 32.3631 14.0065C32.6856 12.4428 32.5257 11.2191 31.798 9.68143C31.1043 8.21544 30.317 7.09969 27.4902 3.57665C26.5394 2.39162 25.5332 1.10204 25.2542 0.711021C24.9752 0.320002 24.7233 0 24.6944 0C24.6655 0 24.3332 0.416184 23.9561 0.92493ZM20.4018 12.1304C20.4723 12.2134 20.5759 12.5895 20.6318 12.9663C20.8041 14.1252 21.3075 14.9822 22.2039 15.6428C22.7827 16.0692 23.6289 16.375 24.2305 16.375C24.5216 16.375 24.6631 16.4255 24.8241 16.5866C25.0704 16.8331 25.0853 16.9549 24.9014 17.2176C24.7903 17.3765 24.6857 17.4092 24.2897 17.4092C22.9093 17.4092 21.3717 16.5897 20.5259 15.403C19.9433 14.5859 19.6982 13.9283 19.5662 12.8287C19.5151 12.4036 19.5306 12.3191 19.6888 12.1608C19.909 11.9403 20.2285 11.9267 20.4018 12.1304ZM10.4 16.3551C9.7985 17.2176 9.22864 17.9393 5.16487 22.9854C2.78098 25.9455 1.52925 27.8322 0.752327 29.6362C0.246347 30.811 0.0583155 31.6092 0.00855254 32.7931C-0.115855 35.7547 1.12228 38.7427 3.37659 40.9214C4.93852 42.4309 6.72904 43.3711 8.93566 43.8405C9.93221 44.0525 12.1331 44.0533 13.1278 43.8421C15.3286 43.3746 17.2298 42.3651 18.7445 40.8595C19.6137 39.9956 20.0712 39.4081 20.6042 38.4719C21.4057 37.0639 21.853 35.6464 22.0302 33.9521C22.2442 31.9056 21.7104 30.0504 20.1723 27.495C19.1727 25.834 18.1426 24.4526 15.1063 20.7005C14.2121 19.5956 13.01 18.0607 12.4349 17.2897C11.8599 16.5186 11.3119 15.7848 11.2172 15.659L11.045 15.4303L10.4 16.3551ZM5.09952 32.7693C5.17391 32.8754 5.23357 33.138 5.23357 33.3588C5.23357 34.5361 5.89013 35.9909 6.86843 36.9813C7.87092 37.9961 8.98387 38.5197 10.4261 38.655C10.9964 38.7084 11.1177 38.7482 11.2292 38.9186C11.4004 39.18 11.3561 39.3716 11.0764 39.5804C10.8645 39.7386 10.7992 39.7431 10.0863 39.6486C8.45895 39.4328 7.2438 38.8366 6.13757 37.7108C5.1269 36.6825 4.57848 35.6607 4.32475 34.3334C4.15868 33.4643 4.1647 32.9324 4.34292 32.7353C4.54197 32.5151 4.93405 32.5327 5.09952 32.7693Z" fill="#FB3939"/>
</svg>
