<svg width="26" height="26" viewBox="0 0 26 26" fill="none" xmlns="http://www.w3.org/2000/svg">
<path fill-rule="evenodd" clip-rule="evenodd" d="M2.16669 13.0164C2.16669 7.30946 6.72752 2.16675 13.0217 2.16675C19.175 2.16675 23.8334 7.21182 23.8334 12.9838C23.8334 19.678 18.3734 23.8334 13 23.8334C11.2234 23.8334 9.25169 23.356 7.67002 22.423C7.11752 22.0866 6.65169 21.8371 6.05585 22.0324L3.86752 22.6834C3.31502 22.857 2.81669 22.423 2.97919 21.8371L3.70502 19.4068C3.82419 19.0704 3.80252 18.7124 3.62919 18.4303C2.69752 16.7161 2.16669 14.8391 2.16669 13.0164ZM11.5917 13.0164C11.5917 13.7867 12.2092 14.4051 12.9784 14.416C13.7475 14.416 14.365 13.7867 14.365 13.0272C14.365 12.2569 13.7475 11.6385 12.9784 11.6385C12.22 11.6276 11.5917 12.2569 11.5917 13.0164ZM16.5859 13.0272C16.5859 13.7867 17.2034 14.416 17.9725 14.416C18.7417 14.416 19.3592 13.7867 19.3592 13.0272C19.3592 12.2569 18.7417 11.6385 17.9725 11.6385C17.2034 11.6385 16.5859 12.2569 16.5859 13.0272ZM7.98419 14.416C7.22585 14.416 6.59752 13.7867 6.59752 13.0272C6.59752 12.2569 7.21502 11.6385 7.98419 11.6385C8.75335 11.6385 9.37085 12.2569 9.37085 13.0272C9.37085 13.7867 8.75335 14.4051 7.98419 14.416Z" fill="black"/>
</svg>
