<svg width="21" height="21" viewBox="0 0 21 21" fill="none" xmlns="http://www.w3.org/2000/svg">
<path d="M15.7499 12.25C15.233 12.2534 14.7232 12.3713 14.2572 12.5952C13.7912 12.8191 13.3806 13.1435 13.0549 13.545L8.59245 11.4888C8.80226 10.8463 8.80226 10.1537 8.59245 9.51125L13.0549 7.455C13.5814 8.09022 14.3152 8.51907 15.1271 8.66586C15.9389 8.81265 16.7765 8.66795 17.492 8.25729C18.2076 7.84663 18.755 7.19642 19.0378 6.4214C19.3206 5.64638 19.3205 4.79639 19.0376 4.02142C18.7547 3.24645 18.2071 2.59634 17.4915 2.18581C16.7759 1.77528 15.9383 1.63073 15.1265 1.77767C14.3146 1.92461 13.5808 2.35359 13.0545 2.98891C12.5282 3.62422 12.2433 4.42503 12.2499 5.25C12.2526 5.45845 12.2731 5.6663 12.3112 5.87125L7.6912 7.9975C7.19864 7.51588 6.57491 7.19033 5.89815 7.06163C5.22139 6.93292 4.5217 7.0068 3.88674 7.27399C3.25178 7.54119 2.70979 7.98982 2.32867 8.56368C1.94756 9.13754 1.74426 9.81111 1.74426 10.5C1.74426 11.1889 1.94756 11.8625 2.32867 12.4363C2.70979 13.0102 3.25178 13.4588 3.88674 13.726C4.5217 13.9932 5.22139 14.0671 5.89815 13.9384C6.57491 13.8097 7.19864 13.4841 7.6912 13.0025L12.3112 15.1288C12.2731 15.3337 12.2526 15.5415 12.2499 15.75C12.2499 16.4422 12.4552 17.1189 12.8398 17.6945C13.2244 18.2701 13.771 18.7187 14.4106 18.9836C15.0501 19.2485 15.7538 19.3178 16.4328 19.1828C17.1117 19.0477 17.7353 18.7144 18.2248 18.2249C18.7143 17.7354 19.0476 17.1118 19.1827 16.4328C19.3177 15.7539 19.2484 15.0502 18.9835 14.4106C18.7186 13.7711 18.27 13.2244 17.6944 12.8399C17.1189 12.4553 16.4422 12.25 15.7499 12.25ZM15.7499 3.5C16.0961 3.5 16.4344 3.60264 16.7222 3.79493C17.01 3.98722 17.2343 4.26053 17.3667 4.58031C17.4992 4.90008 17.5338 5.25194 17.4663 5.59141C17.3988 5.93088 17.2321 6.2427 16.9874 6.48744C16.7426 6.73218 16.4308 6.89885 16.0914 6.96638C15.7519 7.0339 15.4 6.99924 15.0803 6.86679C14.7605 6.73434 14.4872 6.51004 14.2949 6.22225C14.1026 5.93446 13.9999 5.59612 13.9999 5.25C13.9999 4.78587 14.1843 4.34075 14.5125 4.01256C14.8407 3.68438 15.2858 3.5 15.7499 3.5ZM5.24995 12.25C4.90383 12.25 4.56549 12.1474 4.2777 11.9551C3.98991 11.7628 3.76561 11.4895 3.63316 11.1697C3.50071 10.8499 3.46605 10.4981 3.53357 10.1586C3.6011 9.81913 3.76777 9.50731 4.01251 9.26257C4.25725 9.01782 4.56907 8.85115 4.90854 8.78363C5.24801 8.7161 5.59987 8.75076 5.91964 8.88321C6.23942 9.01567 6.51273 9.23997 6.70502 9.52775C6.89731 9.81554 6.99995 10.1539 6.99995 10.5C6.99995 10.9641 6.81557 11.4092 6.48739 11.7374C6.1592 12.0656 5.71408 12.25 5.24995 12.25ZM15.7499 17.5C15.4038 17.5 15.0655 17.3974 14.7777 17.2051C14.4899 17.0128 14.2656 16.7395 14.1332 16.4197C14.0007 16.0999 13.9661 15.7481 14.0336 15.4086C14.1011 15.0691 14.2678 14.7573 14.5125 14.5126C14.7573 14.2678 15.0691 14.1012 15.4085 14.0336C15.748 13.9661 16.0999 14.0008 16.4196 14.1332C16.7394 14.2657 17.0127 14.49 17.205 14.7778C17.3973 15.0655 17.4999 15.4039 17.4999 15.75C17.4999 16.2141 17.3156 16.6593 16.9874 16.9874C16.6592 17.3156 16.2141 17.5 15.7499 17.5Z" fill="black"/>
</svg>
