<svg width="25" height="25" viewBox="0 0 25 25" fill="none" xmlns="http://www.w3.org/2000/svg">
<path d="M18.9236 14.9789C18.2239 14.8284 17.6703 15.1533 17.1802 15.437C16.6783 15.7293 15.7239 16.5036 15.1768 16.3054C12.3759 15.1522 9.74158 12.7006 8.60122 9.88847C8.40023 9.32972 9.17086 8.36924 9.46105 7.86138C9.74265 7.36977 10.0608 6.81102 9.91569 6.10609C9.78457 5.47263 8.08854 3.31452 7.4888 2.72437C7.09328 2.33454 6.68808 2.12014 6.27214 2.08549C4.70831 2.01835 2.96176 4.10499 2.65545 4.60419C1.88804 5.66862 1.89234 7.08498 2.66835 8.80237C4.53849 13.4153 11.6117 20.3769 16.2419 22.3174C17.0964 22.7169 17.8778 22.9173 18.5796 22.9173C19.2664 22.9173 19.878 22.7256 20.4036 22.3455C20.8002 22.117 22.9723 20.2838 22.9153 18.6779C22.881 18.2686 22.6671 17.8593 22.2823 17.463C21.6965 16.8577 19.5523 15.111 18.9236 14.9789Z" fill="black"/>
</svg>
