<svg width="40" height="44" viewBox="0 0 40 44" fill="none" xmlns="http://www.w3.org/2000/svg">
<path fill-rule="evenodd" clip-rule="evenodd" d="M10.0022 0.0825904C7.39285 0.417738 5.09431 1.55795 3.16946 3.47208C1.58823 5.04462 0.547508 7.08973 0.149836 9.40635C-0.0666617 10.6671 -0.0459487 12.9376 0.19513 14.3859C0.775007 17.8687 2.21615 21.503 3.87258 23.6592C4.58714 24.5893 5.01386 25.4794 5.39752 26.8401C5.47376 27.1105 5.86679 28.9295 6.27091 30.8822C7.3295 35.9971 7.99275 38.506 8.79557 40.4328C9.92988 43.155 11.2333 44.2884 12.8274 43.9382C13.8568 43.712 14.8009 43.0359 15.4474 42.0616C16.3901 40.6413 16.9153 38.8615 17.6062 34.7463C17.9388 32.766 18.0621 32.4095 18.5561 32.002C19.5001 31.2235 20.9728 31.5124 21.5187 32.5832C21.6183 32.7785 21.8097 33.6501 21.9938 34.7463C22.6847 38.8615 23.2099 40.6413 24.1526 42.0616C24.6069 42.7461 25.1103 43.2092 25.791 43.5688C27.8674 44.6658 29.4541 43.6733 30.8044 40.4328C31.6073 38.506 32.2705 35.9971 33.3291 30.8822C33.7332 28.9295 34.1262 27.1105 34.2025 26.8401C34.5861 25.4794 35.0129 24.5893 35.7274 23.6592C37.3839 21.503 38.825 17.8687 39.4049 14.3859C39.646 12.9376 39.6667 10.6671 39.4502 9.40635C39.0525 7.08973 38.0118 5.04462 36.4305 3.47208C34.2663 1.31981 31.6719 0.166098 28.6569 0.0150793C27.4843 -0.0435737 26.3231 0.0751083 24.6787 0.42178C22.6767 0.843961 21.6254 0.959891 19.8 0.959891C18.0025 0.959891 16.8442 0.834931 15.0754 0.450333C13.0982 0.0204973 11.4284 -0.100593 10.0022 0.0825904ZM13.3498 4.50186C14.1287 4.90495 14.1469 6.16384 13.3793 6.55231C13.2276 6.62911 12.712 6.69292 11.9789 6.72551C11.3408 6.75398 10.5866 6.83895 10.303 6.91437C8.27878 7.45274 6.70021 8.99613 5.99511 11.1262C5.68587 12.0603 5.5707 12.2667 5.24944 12.4627C4.49475 12.9232 3.47156 12.3823 3.47062 11.5225C3.47019 11.1154 3.77151 10.1465 4.16102 9.30289C5.40973 6.59832 7.74514 4.85017 10.74 4.37836C11.4932 4.25968 13.0215 4.33201 13.3498 4.50186Z" fill="#AE386E"/>
</svg>
