<svg width="40" height="40" viewBox="0 0 40 40" fill="none" xmlns="http://www.w3.org/2000/svg">
<path fill-rule="evenodd" clip-rule="evenodd" d="M9.1648 0.155958C8.72829 0.386087 8.36037 0.763055 8.17002 1.17509C8.01664 1.50712 7.996 1.81114 7.99422 3.77467L7.99216 5.99821L6.32701 6.03695C4.82218 6.07201 4.60097 6.0989 4.02938 6.31615C2.26629 6.98642 0.986144 8.26924 0.31727 10.036C0.100472 10.6088 0.0736417 10.8305 0.0386501 12.3384L0 14.0071H20H40L39.9614 12.3384C39.9264 10.8305 39.8995 10.6088 39.6827 10.036C39.0106 8.26068 37.7422 6.98971 35.9706 6.31615C35.399 6.0989 35.1778 6.07201 33.673 6.03695L32.0078 5.99821V3.79516C32.0078 2.01617 31.9798 1.52479 31.8622 1.24259C31.55 0.493819 30.8254 0 30.0386 0C29.2107 0 28.612 0.356475 28.2228 1.08108C28.0347 1.43126 28.0188 1.61354 27.9914 3.73678L27.9619 6.01645H20H12.0381L12.0086 3.73678C11.9812 1.61354 11.9653 1.43126 11.7772 1.08108C11.5237 0.609072 11.2294 0.331657 10.7847 0.145523C10.3405 -0.040517 9.52738 -0.0352526 9.1648 0.155958ZM0.0393068 26.7215L0.065105 35.3937L0.311172 36.0275C1.00266 37.8086 2.25194 39.0605 4.02938 39.7534L4.66186 40H19.9062H35.1505L35.8072 39.7915C37.6075 39.2198 39.1018 37.7403 39.7263 35.9107L39.9349 35.2996L39.9602 26.6745L39.9856 18.0494H19.9995H0.0135089L0.0393068 26.7215Z" fill="#60CFC3"/>
</svg>
